<svg id="visual" viewBox="0 0 1920 1080" width="1920" height="1080" xmlns="http://www.w3.org/2000/svg" xmlns:xlink="http://www.w3.org/1999/xlink" version="1.1"><rect x="0" y="0" width="1920" height="1080" fill="#000000"></rect><defs><linearGradient id="grad1_0" x1="43.8%" y1="100%" x2="100%" y2="0%"><stop offset="14.444444444444446%" stop-color="#d34848" stop-opacity="1"></stop><stop offset="85.55555555555554%" stop-color="#d34848" stop-opacity="1"></stop></linearGradient></defs><defs><linearGradient id="grad1_1" x1="43.8%" y1="100%" x2="100%" y2="0%"><stop offset="14.444444444444446%" stop-color="#d34848" stop-opacity="1"></stop><stop offset="85.55555555555554%" stop-color="#ac222c" stop-opacity="1"></stop></linearGradient></defs><defs><linearGradient id="grad1_2" x1="43.8%" y1="100%" x2="100%" y2="0%"><stop offset="14.444444444444446%" stop-color="#850012" stop-opacity="1"></stop><stop offset="85.55555555555554%" stop-color="#ac222c" stop-opacity="1"></stop></linearGradient></defs><defs><linearGradient id="grad1_3" x1="43.8%" y1="100%" x2="100%" y2="0%"><stop offset="14.444444444444446%" stop-color="#850012" stop-opacity="1"></stop><stop offset="85.55555555555554%" stop-color="#610000" stop-opacity="1"></stop></linearGradient></defs><defs><linearGradient id="grad1_4" x1="43.8%" y1="100%" x2="100%" y2="0%"><stop offset="14.444444444444446%" stop-color="#000000" stop-opacity="1"></stop><stop offset="85.55555555555554%" stop-color="#610000" stop-opacity="1"></stop></linearGradient></defs><defs><linearGradient id="grad2_0" x1="0%" y1="100%" x2="56.3%" y2="0%"><stop offset="14.444444444444446%" stop-color="#d34848" stop-opacity="1"></stop><stop offset="85.55555555555554%" stop-color="#d34848" stop-opacity="1"></stop></linearGradient></defs><defs><linearGradient id="grad2_1" x1="0%" y1="100%" x2="56.3%" y2="0%"><stop offset="14.444444444444446%" stop-color="#ac222c" stop-opacity="1"></stop><stop offset="85.55555555555554%" stop-color="#d34848" stop-opacity="1"></stop></linearGradient></defs><defs><linearGradient id="grad2_2" x1="0%" y1="100%" x2="56.3%" y2="0%"><stop offset="14.444444444444446%" stop-color="#ac222c" stop-opacity="1"></stop><stop offset="85.55555555555554%" stop-color="#850012" stop-opacity="1"></stop></linearGradient></defs><defs><linearGradient id="grad2_3" x1="0%" y1="100%" x2="56.3%" y2="0%"><stop offset="14.444444444444446%" stop-color="#610000" stop-opacity="1"></stop><stop offset="85.55555555555554%" stop-color="#850012" stop-opacity="1"></stop></linearGradient></defs><defs><linearGradient id="grad2_4" x1="0%" y1="100%" x2="56.3%" y2="0%"><stop offset="14.444444444444446%" stop-color="#610000" stop-opacity="1"></stop><stop offset="85.55555555555554%" stop-color="#000000" stop-opacity="1"></stop></linearGradient></defs><g transform="translate(1920, 1080)"><path d="M-918 0C-914.1 -99.3 -910.2 -198.6 -873.1 -283.7C-836 -368.7 -765.6 -439.5 -697.4 -506.7C-629.1 -573.9 -562.9 -637.5 -486.1 -669.1C-409.3 -700.6 -322 -700 -239.2 -736.1C-156.4 -772.3 -78.2 -845.1 0 -918L0 0Z" fill="#500000"></path><path d="M-734.4 0C-731.3 -79.5 -728.1 -158.9 -698.5 -226.9C-668.8 -295 -612.5 -351.6 -557.9 -405.3C-503.3 -459.1 -450.3 -510 -388.9 -535.2C-327.4 -560.5 -257.6 -560 -191.3 -588.9C-125.1 -617.8 -62.6 -676.1 0 -734.4L0 0Z" fill="#730000"></path><path d="M-550.8 0C-548.5 -59.6 -546.1 -119.2 -523.8 -170.2C-501.6 -221.2 -459.4 -263.7 -418.4 -304C-377.5 -344.3 -337.7 -382.5 -291.7 -401.4C-245.6 -420.4 -193.2 -420 -143.5 -441.7C-93.8 -463.4 -46.9 -507.1 0 -550.8L0 0Z" fill="#99051e"></path><path d="M-367.2 0C-365.6 -39.7 -364.1 -79.5 -349.2 -113.5C-334.4 -147.5 -306.3 -175.8 -278.9 -202.7C-251.6 -229.5 -225.2 -255 -194.4 -267.6C-163.7 -280.2 -128.8 -280 -95.7 -294.4C-62.6 -308.9 -31.3 -338.1 0 -367.2L0 0Z" fill="#bf363a"></path><path d="M-183.6 0C-182.8 -19.9 -182 -39.7 -174.6 -56.7C-167.2 -73.7 -153.1 -87.9 -139.5 -101.3C-125.8 -114.8 -112.6 -127.5 -97.2 -133.8C-81.9 -140.1 -64.4 -140 -47.8 -147.2C-31.3 -154.5 -15.6 -169 0 -183.6L0 0Z" fill="#d34848"></path></g><g transform="translate(0, 0)"><path d="M918 0C866.4 85.4 814.7 170.8 778.9 253.1C743.1 335.3 723.1 414.5 690.1 501.4C657.1 588.3 611.2 683 539.6 742.7C467.9 802.3 370.5 826.9 276.3 850.2C182 873.6 91 895.8 0 918L0 0Z" fill="#500000"></path><path d="M734.4 0C693.1 68.3 651.8 136.7 623.1 202.5C594.5 268.3 578.4 331.6 552.1 401.1C525.7 470.6 489 546.4 431.7 594.1C374.3 641.9 296.4 661.5 221 680.2C145.6 698.9 72.8 716.6 0 734.4L0 0Z" fill="#730000"></path><path d="M550.8 0C519.8 51.2 488.8 102.5 467.3 151.9C445.9 201.2 433.8 248.7 414.1 300.8C394.3 353 366.7 409.8 323.8 445.6C280.8 481.4 222.3 496.1 165.8 510.1C109.2 524.2 54.6 537.5 0 550.8L0 0Z" fill="#99051e"></path><path d="M367.2 0C346.5 34.2 325.9 68.3 311.6 101.2C297.2 134.1 289.2 165.8 276 200.6C262.9 235.3 244.5 273.2 215.8 297.1C187.2 320.9 148.2 330.7 110.5 340.1C72.8 349.4 36.4 358.3 0 367.2L0 0Z" fill="#bf363a"></path><path d="M183.6 0C173.3 17.1 162.9 34.2 155.8 50.6C148.6 67.1 144.6 82.9 138 100.3C131.4 117.7 122.2 136.6 107.9 148.5C93.6 160.5 74.1 165.4 55.3 170C36.4 174.7 18.2 179.2 0 183.6L0 0Z" fill="#d34848"></path></g></svg>