<svg id="visual" viewBox="0 0 1920 1080" width="1920" height="1080" xmlns="http://www.w3.org/2000/svg" xmlns:xlink="http://www.w3.org/1999/xlink" version="1.1"><rect x="0" y="0" width="1920" height="1080" fill="#000000"></rect><defs><linearGradient id="grad1_0" x1="43.8%" y1="100%" x2="100%" y2="0%"><stop offset="14.444444444444446%" stop-color="#d34848" stop-opacity="1"></stop><stop offset="85.55555555555554%" stop-color="#d34848" stop-opacity="1"></stop></linearGradient></defs><defs><linearGradient id="grad1_1" x1="43.8%" y1="100%" x2="100%" y2="0%"><stop offset="14.444444444444446%" stop-color="#d34848" stop-opacity="1"></stop><stop offset="85.55555555555554%" stop-color="#ac222c" stop-opacity="1"></stop></linearGradient></defs><defs><linearGradient id="grad1_2" x1="43.8%" y1="100%" x2="100%" y2="0%"><stop offset="14.444444444444446%" stop-color="#850012" stop-opacity="1"></stop><stop offset="85.55555555555554%" stop-color="#ac222c" stop-opacity="1"></stop></linearGradient></defs><defs><linearGradient id="grad1_3" x1="43.8%" y1="100%" x2="100%" y2="0%"><stop offset="14.444444444444446%" stop-color="#850012" stop-opacity="1"></stop><stop offset="85.55555555555554%" stop-color="#610000" stop-opacity="1"></stop></linearGradient></defs><defs><linearGradient id="grad1_4" x1="43.8%" y1="100%" x2="100%" y2="0%"><stop offset="14.444444444444446%" stop-color="#000000" stop-opacity="1"></stop><stop offset="85.55555555555554%" stop-color="#610000" stop-opacity="1"></stop></linearGradient></defs><defs><linearGradient id="grad2_0" x1="0%" y1="100%" x2="56.3%" y2="0%"><stop offset="14.444444444444446%" stop-color="#d34848" stop-opacity="1"></stop><stop offset="85.55555555555554%" stop-color="#d34848" stop-opacity="1"></stop></linearGradient></defs><defs><linearGradient id="grad2_1" x1="0%" y1="100%" x2="56.3%" y2="0%"><stop offset="14.444444444444446%" stop-color="#ac222c" stop-opacity="1"></stop><stop offset="85.55555555555554%" stop-color="#d34848" stop-opacity="1"></stop></linearGradient></defs><defs><linearGradient id="grad2_2" x1="0%" y1="100%" x2="56.3%" y2="0%"><stop offset="14.444444444444446%" stop-color="#ac222c" stop-opacity="1"></stop><stop offset="85.55555555555554%" stop-color="#850012" stop-opacity="1"></stop></linearGradient></defs><defs><linearGradient id="grad2_3" x1="0%" y1="100%" x2="56.3%" y2="0%"><stop offset="14.444444444444446%" stop-color="#610000" stop-opacity="1"></stop><stop offset="85.55555555555554%" stop-color="#850012" stop-opacity="1"></stop></linearGradient></defs><defs><linearGradient id="grad2_4" x1="0%" y1="100%" x2="56.3%" y2="0%"><stop offset="14.444444444444446%" stop-color="#610000" stop-opacity="1"></stop><stop offset="85.55555555555554%" stop-color="#000000" stop-opacity="1"></stop></linearGradient></defs><g transform="translate(1920, 1080)"><path d="M-918 0C-899.8 -96.3 -881.6 -192.6 -830.3 -269.8C-779 -346.9 -694.6 -405 -625.4 -454.4C-556.1 -503.7 -502 -544.5 -452.6 -622.9C-403.1 -701.4 -358.3 -817.6 -283.7 -873.1C-209 -928.5 -104.5 -923.3 0 -918L0 0Z" fill="#500000"></path><path d="M-734.4 0C-719.8 -77 -705.3 -154.1 -664.2 -215.8C-623.2 -277.6 -555.7 -324 -500.3 -363.5C-444.9 -403 -401.6 -435.6 -362.1 -498.4C-322.5 -561.1 -286.7 -654.1 -226.9 -698.5C-167.2 -742.8 -83.6 -738.6 0 -734.4L0 0Z" fill="#730000"></path><path d="M-550.8 0C-539.9 -57.8 -528.9 -115.6 -498.2 -161.9C-467.4 -208.2 -416.8 -243 -375.2 -272.6C-333.7 -302.2 -301.2 -326.7 -271.6 -373.8C-241.9 -420.8 -215 -490.6 -170.2 -523.8C-125.4 -557.1 -62.7 -554 0 -550.8L0 0Z" fill="#99051e"></path><path d="M-367.2 0C-359.9 -38.5 -352.6 -77 -332.1 -107.9C-311.6 -138.8 -277.8 -162 -250.1 -181.7C-222.5 -201.5 -200.8 -217.8 -181 -249.2C-161.3 -280.6 -143.3 -327 -113.5 -349.2C-83.6 -371.4 -41.8 -369.3 0 -367.2L0 0Z" fill="#bf363a"></path><path d="M-183.6 0C-180 -19.3 -176.3 -38.5 -166.1 -54C-155.8 -69.4 -138.9 -81 -125.1 -90.9C-111.2 -100.7 -100.4 -108.9 -90.5 -124.6C-80.6 -140.3 -71.7 -163.5 -56.7 -174.6C-41.8 -185.7 -20.9 -184.7 0 -183.6L0 0Z" fill="#d34848"></path></g><g transform="translate(0, 0)"><path d="M918 0C869.8 82.2 821.5 164.5 802.7 260.8C783.9 357.2 794.5 467.6 742.7 539.6C690.8 611.6 576.6 645.1 482 663.4C387.4 681.7 312.5 684.8 235.5 724.7C158.4 764.6 79.2 841.3 0 918L0 0Z" fill="#500000"></path><path d="M734.4 0C695.8 65.8 657.2 131.6 642.2 208.6C627.1 285.7 635.6 374.1 594.1 431.7C552.7 489.3 461.3 516.1 385.6 530.7C309.9 545.4 250 547.8 188.4 579.8C126.7 611.7 63.4 673 0 734.4L0 0Z" fill="#730000"></path><path d="M550.8 0C521.9 49.3 492.9 98.7 481.6 156.5C470.3 214.3 476.7 280.6 445.6 323.8C414.5 366.9 345.9 387.1 289.2 398C232.4 409 187.5 410.9 141.3 434.8C95.1 458.8 47.5 504.8 0 550.8L0 0Z" fill="#99051e"></path><path d="M367.2 0C347.9 32.9 328.6 65.8 321.1 104.3C313.6 142.9 317.8 187 297.1 215.8C276.3 244.6 230.6 258 192.8 265.4C155 272.7 125 273.9 94.2 289.9C63.4 305.8 31.7 336.5 0 367.2L0 0Z" fill="#bf363a"></path><path d="M183.6 0C174 16.4 164.3 32.9 160.5 52.2C156.8 71.4 158.9 93.5 148.5 107.9C138.2 122.3 115.3 129 96.4 132.7C77.5 136.3 62.5 137 47.1 144.9C31.7 152.9 15.8 168.3 0 183.6L0 0Z" fill="#d34848"></path></g></svg>